<?xml version="1.0" encoding="UTF-8" standalone="no"?>
<svg
   xmlns:dc="http://purl.org/dc/elements/1.1/"
   xmlns:cc="http://web.resource.org/cc/"
   xmlns:rdf="http://www.w3.org/1999/02/22-rdf-syntax-ns#"
   xmlns:svg="http://www.w3.org/2000/svg"
   xmlns="http://www.w3.org/2000/svg"
   xmlns:sodipodi="http://sodipodi.sourceforge.net/DTD/sodipodi-0.dtd"
   xmlns:inkscape="http://www.inkscape.org/namespaces/inkscape"
   width="152.91451"
   height="158.08925"
   viewBox="0 0 360.267 93.793"
   id="svg2"
   sodipodi:version="0.32"
   inkscape:version="0.45.1"
   sodipodi:docname="ubuntu-logo-no-text.svg"
   inkscape:output_extension="org.inkscape.output.svg.inkscape"
   sodipodi:docbase="C:\Dokumente und Einstellungen\rudi\Desktop"
   version="1.0">
  <metadata
     id="metadata31">
    <rdf:RDF>
      <cc:Work
         rdf:about="">
        <dc:format>image/svg+xml</dc:format>
        <dc:type
           rdf:resource="http://purl.org/dc/dcmitype/StillImage" />
      </cc:Work>
    </rdf:RDF>
  </metadata>
  <defs
     id="defs29" />
  <sodipodi:namedview
     inkscape:window-height="938"
     inkscape:window-width="1280"
     inkscape:pageshadow="2"
     inkscape:pageopacity="0.0"
     guidetolerance="10.0"
     gridtolerance="10.0"
     objecttolerance="10.0"
     borderopacity="1.0"
     bordercolor="#666666"
     pagecolor="#ffffff"
     id="base"
     width="160px"
     height="158.09599px"
     inkscape:zoom="2.3448551"
     inkscape:cx="25.223778"
     inkscape:cy="65.9586"
     inkscape:window-x="-4"
     inkscape:window-y="-4"
     inkscape:current-layer="svg2" />
  <g
     id="g2183"
     transform="matrix(3.9567661,0,0,3.9567661,0.6565681,-138.66198)">
    <circle
       id="circle4"
       r="9.1239996"
       cy="46.903999"
       cx="9.1239996"
       sodipodi:cx="9.1239996"
       sodipodi:cy="46.903999"
       sodipodi:rx="9.1239996"
       sodipodi:ry="9.1239996"
       style="fill:#ff6309" />
    <circle
       id="circle6"
       r="9.1239996"
       cy="84.667"
       cx="74.547997"
       sodipodi:cx="74.547997"
       sodipodi:cy="84.667"
       sodipodi:rx="9.1239996"
       sodipodi:ry="9.1239996"
       style="fill:#ffb515" />
    <circle
       id="circle8"
       r="9.1239996"
       cy="9.1260004"
       cx="74.540001"
       sodipodi:cx="74.540001"
       sodipodi:cy="9.1260004"
       sodipodi:rx="9.1239996"
       sodipodi:ry="9.1239996"
       style="fill:#c90016" />
    <path
       id="path10"
       d="M 52.739,24.327 C 64.1,24.327 73.526,32.763 75.087,43.7 L 90.719,43.7 C 90.009,35.106 86.446,27.096 80.489,20.779 C 76.674,22.722 71.983,22.759 67.998,20.459 C 64.01,18.156 61.696,14.072 61.474,9.792 C 58.643,9.132 55.718,8.79 52.739,8.79 C 47.035,8.79 41.523,10.035 36.51,12.396 L 44.336,25.951 C 46.935,24.905 49.771,24.327 52.739,24.327 z "
       style="fill:#ff6309" />
    <path
       id="path12"
       d="M 30.163,46.904 C 30.163,39.711 33.544,33.294 38.799,29.157 L 30.975,15.604 C 29.14,16.886 27.404,18.337 25.787,19.953 C 21.259,24.481 18.012,29.948 16.225,35.915 C 19.825,38.247 22.209,42.295 22.209,46.904 C 22.209,51.512 19.825,55.561 16.225,57.892 C 18.012,63.859 21.259,69.326 25.787,73.854 C 27.403,75.47 29.137,76.919 30.971,78.202 L 38.796,64.648 C 33.542,60.511 30.163,54.094 30.163,46.904 z "
       style="fill:#ffb515" />
    <path
       id="path14"
       d="M 75.088,50.098 C 73.531,61.039 64.103,69.48 52.739,69.48 C 49.769,69.48 46.932,68.902 44.333,67.854 L 36.506,81.41 C 41.518,83.772 47.032,85.018 52.738,85.018 C 55.719,85.018 58.648,84.674 61.48,84.014 C 61.698,79.729 64.013,75.638 68.004,73.334 C 71.99,71.032 76.683,71.069 80.499,73.016 C 86.451,66.698 90.01,58.689 90.718,50.098 L 75.088,50.098 z "
       style="fill:#c90016" />
  </g>
</svg>
